[h264 @ 0x55cafc1bf180] Reinit context to 640x352, pix_fmt: yuv420p
Input #0, mov,mp4,m4a,3gp,3g2,mj2, from '/var/www/html/project/media/video/original/VID-20220807-WA0007.mp4':
  Metadata:
    major_brand     : mp42
    minor_version   : 0
    compatible_brands: mp42isom
  Duration: 00:00:17.43, start: 0.000000, bitrate: 2122 kb/s
    Stream #0:0(und): Video: h264 (High), 1 reference frame (avc1 / 0x31637661), yuv420p(tv, unknown/bt470bg/unknown, left), 640x352, 2022 kb/s, 59.34 fps, 59.94 tbr, 90k tbn, 180k tbc (default)
    Stream #0:1(und): Audio: aac (LC) (mp4a / 0x6134706D), 48000 Hz, stereo, fltp, 96 kb/s (default)
Input #1, png_pipe, from '/var/www/html/project/static/images/templates/logo.png':
  Duration: N/A, bitrate: N/A
    Stream #1:0: Video: png, 1 reference frame, rgba(pc), 1920x1080 [SAR 2835:2835 DAR 16:9], 25 tbr, 25 tbn, 25 tbc
[h264 @ 0x55cafc2aa140] Reinit context to 1280x720, pix_fmt: yuv420p
Input #2, mov,mp4,m4a,3gp,3g2,mj2, from '/var/www/html/project/static/images/templates/Codino.mp4':
  Metadata:
    major_brand     : mp42
    minor_version   : 1
    compatible_brands: isommp41mp42
    creation_time   : 2021-07-11T07:02:58.000000Z
  Duration: 00:00:02.00, start: 0.000000, bitrate: 1007 kb/s
    Stream #2:0(ita): Audio: aac (LC) (mp4a / 0x6134706D), 44100 Hz, stereo, fltp, 102 kb/s (default)
    Metadata:
      creation_time   : 2021-07-11T07:02:58.000000Z
      handler_name    : Core Media Audio
    Stream #2:1(und): Video: h264 (High), 1 reference frame (avc1 / 0x31637661), yuv420p(tv, bt709, progressive, left), 1280x720 [SAR 1:1 DAR 16:9], 813 kb/s, 25 fps, 25 tbr, 25k tbn, 50k tbc (default)
    Metadata:
      creation_time   : 2021-07-11T07:02:58.000000Z
      handler_name    : Core Media Video
[Parsed_scale_0 @ 0x55cafc2b6bc0] w:1280 h:720 flags:'bilinear' interl:0
[Parsed_scale_2 @ 0x55cafc2b7940] w:1280 h:720 flags:'bilinear' interl:0
[Parsed_scale_4 @ 0x55cafc1f6b40] w:1280 h:720 flags:'bilinear' interl:0
Stream mapping:
  Stream #0:0 (h264) -> scale
  Stream #0:1 (aac) -> concat:in0:a0
  Stream #1:0 (png) -> scale
  Stream #2:0 (aac) -> concat:in1:a0
  Stream #2:1 (h264) -> scale
  concat:out:v0 -> Stream #0:0 (libx264)
  concat:out:a0 -> Stream #0:1 (aac)
Press [q] to stop, [?] for help
[h264 @ 0x55cafc28a3c0] Reinit context to 640x352, pix_fmt: yuv420p
[h264 @ 0x55cafc683e40] Reinit context to 1280x720, pix_fmt: yuv420p
[Parsed_scale_0 @ 0x55cafc2b71c0] w:1280 h:720 flags:'bilinear' interl:0
[Parsed_scale_2 @ 0x55cafd05e580] w:1280 h:720 flags:'bilinear' interl:0
[Parsed_scale_4 @ 0x55cafc2d3b00] w:1280 h:720 flags:'bilinear' interl:0
[graph 0 input from stream 0:0 @ 0x55cafc20fbc0] w:640 h:352 pixfmt:yuv420p tb:1/90000 fr:60000/1001 sar:0/1 sws_param:flags=2
[graph 0 input from stream 1:0 @ 0x55cafc2d5640] w:1920 h:1080 pixfmt:rgba tb:1/25 fr:25/1 sar:2835/2835 sws_param:flags=2
[graph 0 input from stream 2:1 @ 0x55cafc2d6540] w:1280 h:720 pixfmt:yuv420p tb:1/25000 fr:25/1 sar:1/1 sws_param:flags=2
[graph_0_in_0_1 @ 0x55cafc214e40] tb:1/48000 samplefmt:fltp samplerate:48000 chlayout:0x3
[graph_0_in_2_0 @ 0x55cafc215c00] tb:1/44100 samplefmt:fltp samplerate:44100 chlayout:0x3
[Parsed_concat_7 @ 0x55cafc2d2a40] auto-inserting filter 'auto_resampler_0' between the filter 'graph_0_in_2_0' and the filter 'Parsed_concat_7'
[Parsed_scale_0 @ 0x55cafc2b71c0] w:640 h:352 fmt:yuv420p sar:0/1 -> w:1280 h:720 fmt:yuv420p sar:0/1 flags:0x2
[Parsed_setsar_1 @ 0x55cafc20ef80] w:1280 h:720 sar:0/1 dar:16/9 -> sar:1/1 dar:16/9
[Parsed_scale_2 @ 0x55cafd05e580] w:1920 h:1080 fmt:rgba sar:2835/2835 -> w:1280 h:720 fmt:yuva420p sar:1/1 flags:0x2
[Parsed_setsar_3 @ 0x55cafc2d0100] w:1280 h:720 sar:1/1 dar:16/9 -> sar:1/1 dar:16/9
[Parsed_overlay_6 @ 0x55cafc2ca600] main w:1280 h:720 fmt:yuv420p overlay w:1280 h:720 fmt:yuva420p
[Parsed_overlay_6 @ 0x55cafc2ca600] [framesync @ 0x55cafc2ca728] Selected 1/90000 time base
[Parsed_overlay_6 @ 0x55cafc2ca600] [framesync @ 0x55cafc2ca728] Sync level 2
[Parsed_scale_4 @ 0x55cafc2d3b00] w:1280 h:720 fmt:yuv420p sar:1/1 -> w:1280 h:720 fmt:yuv420p sar:1/1 flags:0x2
[Parsed_setsar_5 @ 0x55cafc2c9e80] w:1280 h:720 sar:1/1 dar:16/9 -> sar:1/1 dar:16/9
[auto_resampler_0 @ 0x55cafc2ca200] ch:2 chl:stereo fmt:fltp r:44100Hz -> ch:2 chl:stereo fmt:fltp r:48000Hz
[libx264 @ 0x55cafc1f8800] using SAR=1/1
[libx264 @ 0x55cafc1f8800] using cpu capabilities: MMX2 SSE2Fast SSSE3 SSE4.2 AVX FMA3 BMI2 AVX2
[libx264 @ 0x55cafc1f8800] profile High, level 3.2
[libx264 @ 0x55cafc1f8800] 264 - core 155 r2917 0a84d98 - H.264/MPEG-4 AVC codec - Copyleft 2003-2018 - http://www.videolan.org/x264.html - options: cabac=1 ref=1 deblock=1:0:0 analyse=0x3:0x113 me=hex subme=2 psy=1 psy_rd=1.00:0.00 mixed_ref=0 me_range=16 chroma_me=1 trellis=0 8x8dct=1 cqm=0 deadzone=21,11 fast_pskip=1 chroma_qp_offset=0 threads=22 lookahead_threads=5 sliced_threads=0 nr=0 decimate=1 interlaced=0 bluray_compat=0 constrained_intra=0 bframes=3 b_pyramid=2 b_adapt=1 b_bias=0 direct=1 weightb=1 open_gop=0 weightp=1 keyint=250 keyint_min=25 scenecut=40 intra_refresh=0 rc_lookahead=10 rc=crf mbtree=1 crf=18.0 qcomp=0.60 qpmin=0 qpmax=69 qpstep=4 ip_ratio=1.40 aq=1:1.00
Output #0, mp4, to '/var/www/html/project/media/video/watermarks/VID-20220807-WA0007.mp4':
  Metadata:
    major_brand     : mp42
    minor_version   : 0
    compatible_brands: mp42isom
    encoder         : Lavf58.29.100
    Stream #0:0: Video: h264 (libx264), 1 reference frame (avc1 / 0x31637661), yuv420p(progressive), 1280x720 [SAR 1:1 DAR 16:9], q=-1--1, 59.94 fps, 60k tbn, 59.94 tbc (default)
    Metadata:
      encoder         : Lavc58.54.100 libx264
    Side data:
      cpb: bitrate max/min/avg: 0/0/0 buffer size: 0 vbv_delay: -1
    Stream #0:1: Audio: aac (LC) (mp4a / 0x6134706D), 48000 Hz, stereo, fltp, delay 1024, 128 kb/s (default)
    Metadata:
      encoder         : Lavc58.54.100 aac
[Parsed_overlay_6 @ 0x55cafc2ca600] [framesync @ 0x55cafc2ca728] Sync level 0
[Parsed_concat_7 @ 0x55cafc2d2a40] EOF on in0:v0, 1 streams left in segment.
[Parsed_concat_7 @ 0x55cafc2d2a40] EOF on in0:a0, 0 streams left in segment.
[Parsed_concat_7 @ 0x55cafc2d2a40] Segment finished at pts=17426109
[Parsed_concat_7 @ 0x55cafc2d2a40] EOF on in1:v0, 1 streams left in segment.
[Parsed_concat_7 @ 0x55cafc2d2a40] EOF on in1:a0, 0 streams left in segment.
[Parsed_concat_7 @ 0x55cafc2d2a40] Segment finished at pts=19444796
No more output streams to write to, finishing.
frame= 1084 fps=253 q=-1.0 Lsize=   13731kB time=00:00:19.45 bitrate=5781.5kbits/s speed=4.53x    
[AVIOContext @ 0x55cafc1bd440] Statistics: 0 seeks, 9 writeouts
video:13406kB audio:300kB subtitle:0kB other streams:0kB global headers:0kB muxing overhead: 0.186905%
Input file #0 (/var/www/html/project/media/video/original/VID-20220807-WA0007.mp4):
  Input stream #0:0 (video): 1034 packets read (4404528 bytes); 1034 frames decoded; 
  Input stream #0:1 (audio): 814 packets read (208384 bytes); 814 frames decoded (833536 samples); 
  Total: 1848 packets (4612912 bytes) demuxed
Input file #1 (/var/www/html/project/static/images/templates/logo.png):
  Input stream #1:0 (video): 1 packets read (111578 bytes); 1 frames decoded; 
  Total: 1 packets (111578 bytes) demuxed
Input file #2 (/var/www/html/project/static/images/templates/Codino.mp4):
  Input stream #2:0 (audio): 89 packets read (26579 bytes); 87 frames decoded (89024 samples); 
  Input stream #2:1 (video): 50 packets read (203365 bytes); 50 frames decoded; 
  Total: 139 packets (229944 bytes) demuxed
Output file #0 (/var/www/html/project/media/video/watermarks/VID-20220807-WA0007.mp4):
  Output stream #0:0 (video): 1084 frames encoded; 1084 packets muxed (13727739 bytes); 
  Output stream #0:1 (audio): 912 frames encoded (933350 samples); 913 packets muxed (306688 bytes); 
  Total: 1997 packets (14034427 bytes) muxed
[AVIOContext @ 0x55cafc201000] Statistics: 2 seeks, 57 writeouts
[libx264 @ 0x55cafc1f8800] frame I:5     Avg QP:18.56  size: 85186
[libx264 @ 0x55cafc1f8800] frame P:780   Avg QP:21.34  size: 14874
[libx264 @ 0x55cafc1f8800] frame B:299   Avg QP:24.57  size:  5683
[libx264 @ 0x55cafc1f8800] consecutive B-frames: 61.2%  3.7%  7.5% 27.7%
[libx264 @ 0x55cafc1f8800] mb I  I16..4:  6.4% 29.2% 64.4%
[libx264 @ 0x55cafc1f8800] mb P  I16..4:  1.9%  3.7%  0.3%  P16..4: 35.5% 13.9%  7.6%  0.0%  0.0%    skip:37.2%
[libx264 @ 0x55cafc1f8800] mb B  I16..4:  0.5%  0.4%  0.0%  B16..8: 18.4%  5.1%  0.6%  direct:13.4%  skip:61.6%  L0:33.9% L1:46.6% BI:19.5%
[libx264 @ 0x55cafc1f8800] 8x8 transform intra:58.7% inter:47.8%
[libx264 @ 0x55cafc1f8800] coded y,uvDC,uvAC intra: 55.6% 53.1% 9.9% inter: 18.8% 8.3% 0.1%
[libx264 @ 0x55cafc1f8800] i16 v,h,dc,p: 55% 17% 17% 11%
[libx264 @ 0x55cafc1f8800] i8 v,h,dc,ddl,ddr,vr,hd,vl,hu: 38% 18% 19%  3%  5%  5%  4%  4%  4%
[libx264 @ 0x55cafc1f8800] i4 v,h,dc,ddl,ddr,vr,hd,vl,hu: 33% 24% 11%  4%  6%  6%  6%  4%  6%
[libx264 @ 0x55cafc1f8800] i8c dc,h,v,p: 49% 15% 28%  7%
[libx264 @ 0x55cafc1f8800] Weighted P-Frames: Y:1.7% UV:0.0%
[libx264 @ 0x55cafc1f8800] kb/s:5654.98
[aac @ 0x55cafc1fae40] Qavg: 2811.211
[AVIOContext @ 0x55cafc1c63c0] Statistics: 4623622 bytes read, 0 seeks
[AVIOContext @ 0x55cafc1f3200] Statistics: 111578 bytes read, 0 seeks
[AVIOContext @ 0x55cafc1c4bc0] Statistics: 1530915 bytes read, 42 seeks
